<?xml version="1.0" encoding="iso-8859-1"?>
<!-- Generator: Adobe Illustrator 19.0.0, SVG Export Plug-In . SVG Version: 6.00 Build 0)  -->
<svg version="1.1" id="Layer_1" xmlns="http://www.w3.org/2000/svg" xmlns:xlink="http://www.w3.org/1999/xlink" x="0px" y="0px"
	 viewBox="0 0 512 512" style="enable-background:new 0 0 512 512;" xml:space="preserve">
<path style="fill:#DEDEE0;" d="M473.187,0H333.588H193.989c-12.849,0-23.266,10.417-23.266,23.266v108.578
	c0,12.849,10.417,23.266,23.266,23.266h7.479h23.266h23.266h85.586h85.31h23.266h23.266h7.755c12.849,0,23.266-10.417,23.266-23.266
	V23.266C496.453,10.417,486.036,0,473.187,0z"/>
<path style="fill:#D8143A;" d="M442.165,155.111h-23.266h-85.31h-85.586h-23.266h-23.266V248l-53.946,0.04
	c-72.773,0-131.977,59.205-131.977,131.978C15.547,452.793,74.75,512,147.523,512c0.003,0,0.005,0,0.008,0l185.918-0.059
	c0.047,0,0.093-0.003,0.14-0.003c72.712-0.076,131.843-59.25,131.843-131.977v-224.85H442.165z"/>
<path style="fill:#D6D5D8;" d="M248.002,155.111h85.586V0H193.989c-12.849,0-23.266,10.417-23.266,23.266v108.578
	c0,12.849,10.417,23.266,23.266,23.266h7.479h23.266H248.002z"/>
<path style="fill:#B8002B;" d="M147.523,512c0.003,0,0.005,0,0.008,0l185.918-0.059c0.047,0,0.093-0.003,0.14-0.003V155.111h-85.586
	h-23.266h-23.266V248l-53.946,0.04c-72.773,0-131.977,59.205-131.977,131.978C15.547,452.793,74.75,512,147.523,512z"/>
<g>
</g>
<g>
</g>
<g>
</g>
<g>
</g>
<g>
</g>
<g>
</g>
<g>
</g>
<g>
</g>
<g>
</g>
<g>
</g>
<g>
</g>
<g>
</g>
<g>
</g>
<g>
</g>
<g>
</g>
</svg>
